{"title":"Butterfly on a Wheel 2007 DVDrip English Klam","uid":6487934,"size":1188545864,"categoryP":"video","categoryS":"movies","magnet":"?xt=urn:btih:13ecb1ac023cdbdfc0e14e3fac05ab7af3282183&amp;dn=Butterfly+on+a+Wheel+2007+DVDrip+English+Klam&amp;tr=udp%3A%2F%2Ftracker.openbittorrent.com%3A80&amp;tr=udp%3A%2F%2Fopen.demonii.com%3A1337&amp;tr=udp%3A%2F%2Ftracker.coppersurfer.tk%3A6969&amp;tr=udp%3A%2F%2Fexodus.desync.com%3A6969","seeders":1,"leechers":0,"uploader":"Klambake","files":-1,"time":1308774445,"description":"With: Pierce Brosnan, Gerard Butler and Maria Bello\n\nNeil en Abby Warner hebben een goed en gelukkig leven. Samen met hun dochter Sophie leiden ze een prettig en zorgeloos bestaan. Hun leven verandert totaal op het moment dat Sophie gekidnapt wordt. Ten einde raad besluiten ze de orders van de kidnapper (Pierce Brosnan) op te volgen, om zo hun dochter terug te krijgen. De moed zakt hen echter in de schoenen wanneer duidelijk wordt dat de man een psychopaat is, die niets te verliezen heeft.\n\nA perfect family's dynamic is ruined by a kidnapper's brutally efficient plot.\n\n------------------ Dutch Friends ------------------\n\nYou can find my Friends at: http://www.Film-Test.nl \n                    \n------ They got my dutchs subs ---- and more ------\n\nGeneral:\n\nComplete name                    : Butterfly on a Wheel\\Butterfly on a Wheel.avi\nFormat                           : AVI\nFormat/Info                      : Audio Video Interleave\nFile size                        : 1.11 GiB\nDuration                         : 1h 31mn\nOverall bit rate                 : 1 741 Kbps\n\nVideo:\n\nFormat                           : MPEG-4 Visual\nFormat profile                   : Simple@L3\nFormat settings, BVOP            : No\nFormat settings, QPel            : No\nFormat settings, GMC             : No warppoints\nFormat settings, Matrix          : Default (H.263)\nCodec ID                         : XVID\nCodec ID/Hint                    : XviD\nDuration                         : 1h 31mn\nBit rate                         : 1 346 Kbps\nWidth                            : 720 pixels\nHeight                           : 304 pixels\nDisplay aspect ratio             : 2.35:1\nFrame rate                       : 25.000 fps\nColor space                      : YUV\nChroma subsampling               : 4:2:0\nBit depth                        : 8 bits\nScan type                        : Progressive\nBits/(Pixel*Frame)               : 0.246\nStream size                      : 876 MiB (77%)\nWriting library                  : XviD 1.1.2 (UTC 2006-11-01)\n\nAudio:\n\nFormat                           : AC-3\nFormat/Info                      : Audio Coding 3\nMode extension                   : CM (complete main)\nCodec ID                         : 2000\nDuration                         : 1h 31mn\nBit rate mode                    : Constant\nBit rate                         : 384 Kbps\nChannel(s)                       : 6 channels\nChannel positions                : Front: L C R, Side: L R, LFE\nSampling rate                    : 48.0 KHz\nBit depth                        : 16 bits\nStream size                      : 250 MiB (22%)\nAlignment                        : Aligned on interleaves\nInterleave, duration             : 32 ms (0.80 video frame)\nInterleave, preload duration     : 96 ms\n\n","torrent":{"xt":"urn:btih:13ecb1ac023cdbdfc0e14e3fac05ab7af3282183","amp;dn":"Butterfly+on+a+Wheel+2007+DVDrip+English+Klam","amp;tr":["udp%3A%2F%2Ftracker.openbittorrent.com%3A80","udp%3A%2F%2Fopen.demonii.com%3A1337","udp%3A%2F%2Ftracker.coppersurfer.tk%3A6969","udp%3A%2F%2Fexodus.desync.com%3A6969"],"infoHash":"13ecb1ac023cdbdfc0e14e3fac05ab7af3282183","infoHashBuffer":{"type":"Buffer","data":[19,236,177,172,2,60,219,223,192,225,78,63,172,5,171,122,243,40,33,131]},"announce":[],"urlList":[]}}